<svg width="35" height="35" viewBox="0 0 35 35" fill="none" xmlns="http://www.w3.org/2000/svg">
<path d="M17.4996 32.2C17.0621 32.2 16.6247 32.0979 16.2601 31.8937C13.533 30.4062 8.74965 28.8313 5.74548 28.4375L5.3226 28.3792C3.41218 28.1459 1.83716 26.3521 1.83716 24.4125V6.79579C1.83716 5.64371 2.28925 4.59376 3.1205 3.83542C3.95175 3.07709 5.03087 2.71249 6.16837 2.81457C9.36212 3.07707 14.2038 4.68126 16.9455 6.38751L17.2955 6.5917C17.3975 6.63545 17.6163 6.65003 17.7038 6.5917L17.9371 6.44581C18.9142 5.83331 20.1392 5.23537 21.4809 4.69579C21.8163 4.56454 22.1955 4.60832 22.5017 4.81248C22.808 5.01665 22.983 5.35206 22.983 5.71664V9.62497L24.1934 8.8229C24.558 8.57498 25.0392 8.57498 25.4038 8.8229L26.6142 9.62497V4.05421C26.6142 3.52921 26.9934 3.07705 27.5038 2.97497C27.9267 2.90205 28.3497 2.84374 28.7288 2.81457C28.758 2.81457 28.8747 2.81457 28.9038 2.81457C29.9684 2.72707 31.0621 3.09169 31.8788 3.85002C32.71 4.60836 33.1621 5.65831 33.1621 6.81039V24.4125C33.1621 26.3667 31.5872 28.1459 29.6622 28.3792L29.1809 28.4375C26.1767 28.8313 21.3642 30.4208 18.6955 31.8937C18.3747 32.0979 17.9371 32.2 17.4996 32.2ZM5.80378 4.97288C5.33712 4.97288 4.91425 5.13331 4.57883 5.43956C4.21425 5.77497 4.01006 6.25621 4.01006 6.79579V24.4125C4.01006 25.2729 4.75384 26.1041 5.58509 26.2208L6.02257 26.2792C9.30382 26.7167 14.3351 28.3646 17.2518 29.9687C17.383 30.0271 17.5725 30.0417 17.6454 30.0125C20.5767 28.3938 25.6226 26.7313 28.9184 26.2938L29.4142 26.2354C30.2455 26.1333 30.9892 25.2875 30.9892 24.4271V6.82499C30.9892 6.28541 30.785 5.81875 30.4205 5.46875C30.0559 5.13333 29.5455 4.97291 29.0205 5.00207C28.9768 5.00207 28.8455 5.00207 28.8163 5.00207V11.6667C28.8163 12.075 28.5975 12.4395 28.233 12.6291C27.8684 12.8187 27.4455 12.8042 27.1101 12.5708L24.8059 11.0396L22.5017 12.5708C22.1663 12.7896 21.7434 12.8187 21.3788 12.6291C21.0288 12.4395 20.7955 12.075 20.7955 11.6667V7.39376C20.1684 7.70001 19.5996 8.00625 19.1038 8.29792L18.8705 8.44372C18.0684 8.93955 16.9309 8.93957 16.158 8.45832L15.808 8.23962C13.3434 6.69379 8.85171 5.20621 5.99337 4.97288C5.92046 4.97288 5.86212 4.97288 5.80378 4.97288Z" fill="white"/>
<path d="M17.5 30.975C16.9021 30.975 16.4062 30.4791 16.4062 29.8812V8.00623C16.4062 7.40831 16.9021 6.91248 17.5 6.91248C18.0979 6.91248 18.5938 7.40831 18.5938 8.00623V29.8812C18.5938 30.4937 18.0979 30.975 17.5 30.975Z" fill="white"/>
<path d="M27.7083 12.7604C27.4896 12.7604 27.2854 12.7021 27.0959 12.5708L24.7917 11.0396L22.4875 12.5708C22.1521 12.7896 21.7292 12.8187 21.3646 12.6291C21.0146 12.4395 20.7812 12.075 20.7812 11.6666V5.71663C20.7812 5.26454 21.0583 4.87077 21.4666 4.69577C23.4791 3.89369 25.6813 3.26662 27.5333 2.97495C27.8542 2.91662 28.175 3.01877 28.4229 3.22293C28.6708 3.4271 28.8021 3.73336 28.8021 4.05419V11.6666C28.8021 12.075 28.5833 12.4395 28.2187 12.6291C28.0583 12.7166 27.8833 12.7604 27.7083 12.7604ZM24.7917 8.63329C24.9958 8.63329 25.2146 8.69163 25.4041 8.82288L26.6146 9.62495V5.38124C25.4479 5.64374 24.1792 6.0229 22.9688 6.47499V9.62495L24.1792 8.82288C24.3688 8.69163 24.5875 8.63329 24.7917 8.63329Z" fill="white"/>
</svg>
