<svg width="35" height="35" viewBox="0 0 35 35" fill="none" xmlns="http://www.w3.org/2000/svg">
<path d="M17.5 22.9688C14.4813 22.9688 12.0312 20.5188 12.0312 17.5C12.0312 14.4813 14.4813 12.0312 17.5 12.0312C20.5188 12.0312 22.9688 14.4813 22.9688 17.5C22.9688 20.5188 20.5188 22.9688 17.5 22.9688ZM17.5 14.2188C15.6917 14.2188 14.2188 15.6917 14.2188 17.5C14.2188 19.3083 15.6917 20.7812 17.5 20.7812C19.3083 20.7812 20.7812 19.3083 20.7812 17.5C20.7812 15.6917 19.3083 14.2188 17.5 14.2188Z" fill="white"/>
<path d="M22.1813 32.3604C21.875 32.3604 21.5688 32.3167 21.2625 32.2438C20.3583 31.9958 19.6 31.4271 19.1188 30.625L18.9438 30.3333C18.0833 28.8458 16.9021 28.8458 16.0417 30.3333L15.8813 30.6104C15.4 31.4271 14.6417 32.0104 13.7375 32.2438C12.8188 32.4917 11.8708 32.3604 11.0688 31.8792L8.56042 30.4354C7.67084 29.925 7.02917 29.0938 6.75209 28.0875C6.48959 27.0813 6.62084 26.0458 7.13125 25.1563C7.55417 24.4125 7.67084 23.7417 7.42292 23.3188C7.175 22.8958 6.54792 22.6479 5.68751 22.6479C3.55834 22.6479 1.82292 20.9125 1.82292 18.7833V16.2167C1.82292 14.0875 3.55834 12.3521 5.68751 12.3521C6.54792 12.3521 7.175 12.1042 7.42292 11.6813C7.67084 11.2583 7.56875 10.5875 7.13125 9.84376C6.62084 8.95418 6.48959 7.90418 6.75209 6.91251C7.01459 5.90626 7.65625 5.07501 8.56042 4.56459L11.0833 3.12084C12.7313 2.14376 14.9042 2.71251 15.8958 4.38959L16.0708 4.68126C16.9313 6.16876 18.1125 6.16876 18.9729 4.68126L19.1333 4.40418C20.125 2.71251 22.2979 2.14376 23.9604 3.13543L26.4688 4.57918C27.3583 5.08959 28 5.92084 28.2771 6.92709C28.5396 7.93334 28.4083 8.96876 27.8979 9.85835C27.475 10.6021 27.3583 11.2729 27.6063 11.6958C27.8542 12.1188 28.4813 12.3667 29.3417 12.3667C31.4708 12.3667 33.2063 14.1021 33.2063 16.2313V18.7979C33.2063 20.9271 31.4708 22.6625 29.3417 22.6625C28.4813 22.6625 27.8542 22.9104 27.6063 23.3333C27.3583 23.7563 27.4604 24.4271 27.8979 25.1708C28.4083 26.0604 28.5542 27.1104 28.2771 28.1021C28.0146 29.1083 27.3729 29.9396 26.4688 30.45L23.9458 31.8938C23.3917 32.2 22.7938 32.3604 22.1813 32.3604ZM17.5 26.9646C18.7979 26.9646 20.0083 27.7813 20.8396 29.225L21 29.5021C21.175 29.8083 21.4667 30.0271 21.8167 30.1146C22.1667 30.2021 22.5167 30.1583 22.8083 29.9833L25.3313 28.525C25.7104 28.3063 26.0021 27.9417 26.1188 27.5042C26.2354 27.0667 26.1771 26.6146 25.9583 26.2354C25.1271 24.8063 25.025 23.3333 25.6667 22.2104C26.3083 21.0875 27.6354 20.4458 29.2979 20.4458C30.2313 20.4458 30.975 19.7021 30.975 18.7688V16.2021C30.975 15.2833 30.2313 14.525 29.2979 14.525C27.6354 14.525 26.3083 13.8833 25.6667 12.7604C25.025 11.6375 25.1271 10.1646 25.9583 8.73543C26.1771 8.35626 26.2354 7.90418 26.1188 7.46668C26.0021 7.02918 25.725 6.67918 25.3458 6.44584L22.8229 5.00209C22.1958 4.62293 21.3646 4.84168 20.9854 5.48334L20.825 5.76043C19.9938 7.20418 18.7833 8.02084 17.4854 8.02084C16.1875 8.02084 14.9771 7.20418 14.1458 5.76043L13.9854 5.46876C13.6208 4.85626 12.8042 4.63751 12.1771 5.00209L9.65417 6.46043C9.275 6.67918 8.98334 7.04376 8.86667 7.48126C8.75 7.91876 8.80834 8.37084 9.02709 8.75001C9.85834 10.1792 9.96042 11.6521 9.31875 12.775C8.67709 13.8979 7.35 14.5396 5.68751 14.5396C4.75417 14.5396 4.01042 15.2833 4.01042 16.2167V18.7833C4.01042 19.7021 4.75417 20.4604 5.68751 20.4604C7.35 20.4604 8.67709 21.1021 9.31875 22.225C9.96042 23.3479 9.85834 24.8208 9.02709 26.25C8.80834 26.6292 8.75 27.0813 8.86667 27.5188C8.98334 27.9563 9.26042 28.3063 9.63959 28.5396L12.1625 29.9833C12.4688 30.1729 12.8333 30.2167 13.1688 30.1292C13.5188 30.0417 13.8104 29.8083 14 29.5021L14.1604 29.225C14.9917 27.7958 16.2021 26.9646 17.5 26.9646Z" fill="white"/>
</svg>
