<svg width="35" height="35" viewBox="0 0 35 35" fill="none" xmlns="http://www.w3.org/2000/svg">
<path d="M25.0832 33.1771C20.6207 33.1771 16.9894 29.5459 16.9894 25.0834C16.9894 20.6209 20.6207 16.9896 25.0832 16.9896C29.5457 16.9896 33.1769 20.6209 33.1769 25.0834C33.1769 29.5459 29.5457 33.1771 25.0832 33.1771ZM25.0832 19.1771C21.8311 19.1771 19.1769 21.8313 19.1769 25.0834C19.1769 28.3354 21.8311 30.9896 25.0832 30.9896C28.3353 30.9896 30.9894 28.3354 30.9894 25.0834C30.9894 21.8313 28.3353 19.1771 25.0832 19.1771Z" fill="white"/>
<path d="M27.6936 26.2646H22.4582C21.8603 26.2646 21.3644 25.7688 21.3644 25.1708C21.3644 24.5729 21.8603 24.0771 22.4582 24.0771H27.6936C28.2915 24.0771 28.7873 24.5729 28.7873 25.1708C28.7873 25.7688 28.3061 26.2646 27.6936 26.2646Z" fill="white"/>
<path d="M25.0836 28.9479C24.4857 28.9479 23.9899 28.4521 23.9899 27.8541V22.6188C23.9899 22.0209 24.4857 21.525 25.0836 21.525C25.6815 21.525 26.1774 22.0209 26.1774 22.6188V27.8541C26.1774 28.4521 25.6815 28.9479 25.0836 28.9479Z" fill="white"/>
<path d="M17.5 31.573C17.0479 31.573 16.5958 31.5146 16.2313 31.3834C12.4979 30.1146 1.82291 23.9313 1.82291 12.6729C1.82291 7.56877 5.94999 3.42706 11.025 3.42706C13.4604 3.42706 15.7937 4.40419 17.5 6.11044C19.2062 4.40419 21.5542 3.42706 23.975 3.42706C29.05 3.42706 33.1771 7.56877 33.1771 12.6729C33.1771 15.5167 32.4916 18.2438 31.1354 20.7959C30.975 21.1021 30.6687 21.3209 30.3187 21.3646C29.9541 21.4084 29.6188 21.2917 29.3709 21.0292C28.2334 19.8333 26.7021 19.1625 25.0688 19.1625C21.8167 19.1625 19.1625 21.8167 19.1625 25.0688C19.1625 26.5125 19.7021 27.9125 20.6792 29.0063C20.9125 29.2688 21 29.6187 20.927 29.9542C20.8541 30.2896 20.6208 30.5813 20.3146 30.7271C19.7312 30.9896 19.2063 31.2084 18.725 31.3688C18.3896 31.5146 17.9521 31.573 17.5 31.573ZM11.025 5.61456C7.16041 5.61456 4.01041 8.77919 4.01041 12.6729C4.01041 22.6479 13.5917 28.1604 16.9458 29.3125C17.2083 29.4146 17.7771 29.4 18.0396 29.3125C18.0833 29.2979 18.1271 29.2834 18.1709 29.2688C17.4125 28.0146 16.9896 26.5709 16.9896 25.0834C16.9896 20.6209 20.6208 16.9896 25.0833 16.9896C26.8042 16.9896 28.4375 17.5292 29.8083 18.5063C30.5958 16.6396 30.9896 14.6854 30.9896 12.6729C30.9896 8.77919 27.8396 5.61456 23.975 5.61456C21.7875 5.61456 19.6875 6.66464 18.375 8.42922C17.9666 8.98339 17.0334 8.98339 16.625 8.42922C15.3125 6.66464 13.2125 5.61456 11.025 5.61456Z" fill="white"/>
</svg>
